<svg width="800" height="800" viewBox="0 0 800 800" fill="none" xmlns="http://www.w3.org/2000/svg">
<path d="M400.002 333.401C305.716 333.401 229.008 410.109 229.008 504.395C229.008 598.681 305.716 675.39 400.002 675.39C494.288 675.39 570.995 598.683 570.995 504.397C570.995 410.111 494.289 333.401 400.002 333.401ZM400.002 630.976C330.205 630.976 273.422 574.194 273.422 504.397C273.422 434.6 330.205 377.817 400.002 377.817C469.798 377.817 526.581 434.6 526.581 504.397C526.581 574.194 469.797 630.976 400.002 630.976Z" fill="#FBF7F7"/>
<path d="M533.534 240.722L588.124 141.433C592.363 133.722 591.65 124.238 586.309 117.247L503.358 8.72031C499.156 3.225 492.631 0 485.714 0H314.288C307.299 0 300.717 3.29062 296.522 8.88281L213.57 119.483C208.308 126.5 207.667 135.958 211.941 143.62L266.156 240.877C170.241 289.792 104.397 389.548 104.397 504.398C104.395 667.391 237.005 800 400 800C562.995 800 695.605 667.394 695.605 504.397C695.606 389.423 629.62 289.58 533.534 240.722ZM325.391 44.4141H474.738L542.233 132.717L492.314 223.513C491.228 223.155 490.13 222.85 489.039 222.506C487.802 222.116 486.558 221.737 485.316 221.362C482.552 220.528 479.777 219.734 476.991 218.984C475.525 218.589 474.058 218.194 472.583 217.82C470.886 217.392 469.188 216.972 467.484 216.572C465.386 216.08 463.274 215.617 461.159 215.17C459.194 214.755 457.222 214.364 455.249 213.991C453.392 213.637 451.531 213.302 449.664 212.984C448.266 212.747 446.866 212.503 445.463 212.287C442.552 211.836 439.627 211.433 436.689 211.066C435.505 210.919 434.317 210.791 433.131 210.656C430.555 210.367 427.97 210.113 425.377 209.891C424.595 209.823 423.816 209.742 423.031 209.681C419.731 209.427 416.414 209.239 413.084 209.095C412.203 209.058 411.322 209.025 410.439 208.995C406.975 208.875 403.5 208.791 400.006 208.791C396.497 208.791 393.011 208.875 389.533 208.997C388.656 209.028 387.778 209.059 386.903 209.097C383.566 209.244 380.239 209.43 376.93 209.687C376.13 209.75 375.338 209.831 374.541 209.9C371.938 210.125 369.347 210.38 366.764 210.67C365.595 210.802 364.428 210.928 363.263 211.072C360.309 211.441 357.367 211.848 354.442 212.305C353.047 212.52 351.659 212.762 350.269 212.997C348.355 213.323 346.449 213.667 344.549 214.031C342.525 214.416 340.505 214.82 338.491 215.248C336.444 215.684 334.4 216.133 332.37 216.609C330.688 217.005 329.011 217.416 327.334 217.842C325.77 218.239 324.217 218.658 322.663 219.08C319.969 219.811 317.286 220.578 314.613 221.388C313.331 221.773 312.052 222.164 310.78 222.569C309.645 222.922 308.508 223.237 307.384 223.608L272.028 160.183H404.438C416.7 160.183 426.644 150.241 426.644 137.977C426.644 125.713 416.7 115.77 404.438 115.77H271.875L325.391 44.4141ZM400.002 755.586C261.494 755.586 148.813 642.903 148.813 504.395C148.813 374.641 247.709 267.548 374.084 254.536C374.209 254.522 374.331 254.509 374.455 254.495C376.314 254.306 378.178 254.144 380.049 253.998C380.327 253.977 380.603 253.95 380.881 253.93C382.6 253.802 384.324 253.697 386.052 253.602C386.464 253.58 386.878 253.548 387.292 253.528C388.936 253.445 390.586 253.391 392.236 253.339C392.714 253.323 393.191 253.298 393.67 253.288C395.775 253.234 397.886 253.208 400.003 253.208C402.119 253.208 404.227 253.236 406.33 253.288C406.814 253.298 407.294 253.325 407.775 253.339C409.42 253.391 411.066 253.445 412.705 253.528C413.122 253.548 413.539 253.58 413.958 253.603C415.678 253.698 417.397 253.8 419.109 253.93C419.399 253.952 419.684 253.978 419.97 254C421.831 254.147 423.691 254.309 425.542 254.495C425.67 254.509 425.797 254.523 425.927 254.538C552.297 267.555 651.189 374.642 651.189 504.395C651.192 642.903 538.509 755.586 400.002 755.586Z" fill="white"/>
<path d="M492.467 133.649C492.178 132.227 491.756 130.828 491.201 129.496C490.647 128.141 489.958 126.853 489.158 125.653C488.339 124.431 487.428 123.299 486.381 122.278C485.359 121.256 484.226 120.324 483.028 119.525C481.806 118.725 480.519 118.038 479.189 117.481C477.855 116.927 476.458 116.481 475.036 116.216C472.172 115.638 469.217 115.638 466.353 116.216C464.931 116.483 463.531 116.927 462.2 117.481C460.87 118.036 459.58 118.725 458.361 119.525C457.137 120.325 456.005 121.258 454.983 122.278C453.961 123.3 453.028 124.433 452.23 125.653C451.433 126.852 450.742 128.141 450.187 129.496C449.633 130.828 449.212 132.227 448.923 133.649C448.633 135.071 448.501 136.536 448.501 137.978C448.501 139.421 448.634 140.888 448.923 142.308C449.212 143.731 449.631 145.13 450.187 146.483C450.742 147.816 451.433 149.103 452.23 150.303C453.03 151.525 453.962 152.658 454.983 153.678C456.005 154.7 457.137 155.633 458.361 156.431C459.583 157.253 460.87 157.919 462.2 158.475C463.53 159.03 464.931 159.475 466.353 159.763C467.797 160.052 469.241 160.185 470.706 160.185C472.15 160.185 473.594 160.052 475.036 159.763C476.458 159.474 477.856 159.03 479.189 158.475C480.522 157.921 481.809 157.253 483.028 156.431C484.226 155.631 485.359 154.699 486.381 153.678C490.534 149.549 492.909 143.819 492.909 137.978C492.912 136.535 492.756 135.071 492.467 133.649Z" fill="white"/>
</svg>
