<svg width="800" height="800" viewBox="0 0 800 800" fill="none" xmlns="http://www.w3.org/2000/svg">
<g clip-path="url(#clip0_363_306)">
<path d="M204.115 656.008C208.931 656.008 213.783 655.537 218.538 654.614C238.297 650.78 255.374 639.48 266.631 622.797C277.886 606.116 281.972 586.05 278.134 566.291C276.101 555.83 271.933 546.228 266.161 537.88L346.214 445.517C357.596 452.35 370.844 456.253 384.841 456.253C389.656 456.253 394.509 455.785 399.266 454.862C419.02 451.028 436.097 439.726 447.354 423.045C456.718 409.162 461.097 392.936 460.098 376.498L582.052 327.405C595.792 341.095 614.678 349.422 635.154 349.422C639.969 349.422 644.824 348.952 649.584 348.029C690.361 340.106 717.088 300.485 709.168 259.714C706.558 246.243 700.42 234.19 691.842 224.417L746.94 102.124L762.064 135.89C765.361 143.255 772.596 147.623 780.175 147.623C782.883 147.623 785.638 147.065 788.269 145.886C798.265 141.409 802.742 129.676 798.263 119.68L762.904 40.7318C760.755 35.9322 756.785 32.1824 751.869 30.3076C746.959 28.4353 741.495 28.5887 736.696 30.7386L657.763 66.0968C647.768 70.5737 643.293 82.3095 647.773 92.3053C652.25 102.304 663.986 106.775 673.981 102.296L710.786 85.8081L658.284 202.338C650.999 199.985 643.262 198.718 635.283 198.718C630.468 198.718 625.613 199.189 620.853 200.112C580.084 208.035 553.35 247.655 561.259 288.44C561.534 289.857 561.865 291.251 562.214 292.637L447.384 338.861C433.717 318.586 410.584 305.554 384.963 305.554C380.15 305.554 375.295 306.025 370.537 306.948C329.758 314.865 303.024 354.486 310.941 395.271C312.432 402.947 315.071 410.167 318.649 416.764L235.84 512.301C226.17 507.803 215.439 505.309 204.237 505.309C199.424 505.309 194.574 505.777 189.814 506.7C170.058 510.537 152.981 521.839 141.726 538.52C130.472 555.204 126.386 575.269 130.226 595.028C137.093 630.362 168.167 656.008 204.115 656.008ZM628.421 239.04C630.69 238.598 633.001 238.374 635.286 238.374C652.287 238.374 666.982 250.522 670.229 267.266C673.981 286.576 661.325 305.335 642.019 309.085C639.75 309.526 637.439 309.751 635.154 309.751C618.15 309.751 603.45 297.603 600.2 280.872C596.453 261.557 609.115 242.792 628.421 239.04ZM378.1 345.881C380.369 345.44 382.681 345.215 384.963 345.215C401.966 345.215 416.661 357.363 419.911 374.102C421.73 383.458 419.797 392.959 414.466 400.858C409.138 408.754 401.056 414.107 391.701 415.921C389.432 416.362 387.12 416.584 384.838 416.584C367.832 416.584 353.129 404.436 349.877 387.705C346.132 368.39 358.791 349.631 378.1 345.881ZM174.607 560.701C179.935 552.805 188.022 547.453 197.375 545.636C199.644 545.197 201.95 544.972 204.234 544.972C221.238 544.972 235.938 557.121 239.193 573.854C241.01 583.21 239.074 592.714 233.743 600.613C228.415 608.509 220.331 613.861 210.975 615.675C208.706 616.117 206.395 616.342 204.113 616.342C187.112 616.342 172.414 604.194 169.162 587.46C167.345 578.104 169.281 568.6 174.607 560.701Z" fill="white"/>
<path d="M778.898 696.477H82.2644V82.394C82.2644 71.4383 73.3872 62.561 62.4314 62.561C51.4784 62.561 42.5985 71.4383 42.5985 82.394V696.477H19.8329C8.87722 696.477 0 705.357 0 716.31C0 727.266 8.87722 736.143 19.8329 736.143H42.5985V751.174C42.5985 762.13 51.4784 771.007 62.4314 771.007C73.3872 771.007 82.2644 762.13 82.2644 751.174V736.143H778.898C789.853 736.143 798.731 727.266 798.731 716.31C798.731 705.355 789.851 696.477 778.898 696.477Z" fill="white"/>
</g>
<defs>
<clipPath id="clip0_363_306">
<rect width="800" height="800" fill="white"/>
</clipPath>
</defs>
</svg>
