<svg width="800" height="800" viewBox="0 0 800 800" fill="none" xmlns="http://www.w3.org/2000/svg">
<path d="M133.333 700V616.667C133.333 515.413 215.414 433.333 316.667 433.333H428.377C510.233 433.333 582.17 379.07 604.657 300.366L624.847 229.699C629.87 212.12 645.937 200 664.22 200C690.86 200 710.407 225.035 703.947 250.88L645.46 484.827C638.333 513.333 612.72 533.333 583.333 533.333M266.667 700V600M533.333 216.667C533.333 290.305 473.637 350 400 350C326.362 350 266.667 290.305 266.667 216.667C266.667 143.029 326.362 83.3335 400 83.3335C473.637 83.3335 533.333 143.029 533.333 216.667Z" stroke="#FFFEFE" stroke-width="46.6667" stroke-linecap="round"/>
</svg>
