<svg width="800" height="800" viewBox="0 0 800 800" fill="none" xmlns="http://www.w3.org/2000/svg">
<path d="M172.312 123.828C175.31 122.586 177.871 120.483 179.673 117.785C181.476 115.088 182.438 111.916 182.438 108.672C182.438 105.428 181.476 102.256 179.673 99.5583C177.871 96.8606 175.31 94.7577 172.312 93.5156C154.766 86.25 151.016 82.5 143.75 64.9531C142.514 61.95 140.413 59.3819 137.714 57.5747C135.016 55.7675 131.841 54.8027 128.594 54.8027C125.346 54.8027 122.172 55.7675 119.473 57.5747C116.775 59.3819 114.674 61.95 113.437 64.9531C106.156 82.5 102.5 86.25 84.8594 93.5156C81.8622 94.7577 79.3006 96.8606 77.4984 99.5583C75.6962 102.256 74.7343 105.428 74.7343 108.672C74.7343 111.916 75.6962 115.088 77.4984 117.785C79.3006 120.483 81.8622 122.586 84.8594 123.828C102.047 130.953 106.312 135.219 113.437 152.406C114.68 155.403 116.782 157.965 119.48 159.767C122.178 161.569 125.349 162.531 128.594 162.531C131.838 162.531 135.01 161.569 137.707 159.767C140.405 157.965 142.508 155.403 143.75 152.406C150.859 135.219 155.141 130.953 172.312 123.828ZM128.562 140.234C121.062 123.766 113.469 116.172 97.0156 108.672C113.687 101.141 121.047 93.75 128.594 77.125C136.125 93.75 143.5 101.141 160.141 108.672C143.75 116.172 136.078 123.766 128.594 140.234H128.562Z" fill="white"/>
<path d="M721.109 438.203C703.562 430.922 699.812 427.188 692.547 409.641C691.305 406.644 689.202 404.082 686.504 402.28C683.806 400.478 680.635 399.516 677.391 399.516C674.146 399.516 670.975 400.478 668.277 402.28C665.579 404.082 663.476 406.644 662.234 409.641C654.953 427.203 651.219 430.938 633.656 438.219C630.659 439.461 628.097 441.564 626.295 444.261C624.493 446.959 623.531 450.131 623.531 453.375C623.531 456.619 624.493 459.791 626.295 462.489C628.097 465.186 630.659 467.289 633.656 468.531C650.844 475.656 655.109 479.922 662.234 497.094C663.476 500.091 665.579 502.653 668.277 504.455C670.975 506.257 674.146 507.219 677.391 507.219C680.635 507.219 683.806 506.257 686.504 504.455C689.202 502.653 691.305 500.091 692.547 497.094C699.656 479.906 703.937 475.641 721.109 468.516C724.112 467.279 726.681 465.178 728.488 462.48C730.295 459.782 731.26 456.607 731.26 453.359C731.26 450.112 730.295 446.937 728.488 444.239C726.681 441.54 724.112 439.44 721.109 438.203ZM677.359 484.906C669.859 468.453 662.266 460.859 645.812 453.359C662.453 445.828 669.812 438.453 677.359 421.813C684.891 438.453 692.266 445.828 708.906 453.359C692.484 460.938 684.875 468.453 677.391 484.906H677.359Z" fill="white"/>
<path d="M604.234 569.312H535.938C533.037 569.312 530.255 570.465 528.204 572.516C526.152 574.567 525 577.349 525 580.25V600.672L477.703 613.172L367.812 566.125C367.469 565.984 367.125 565.859 366.766 565.75C359.901 563.592 352.543 563.566 345.662 565.673C338.782 567.78 332.701 571.922 328.221 577.554C323.742 583.186 321.074 590.042 320.568 597.221C320.063 604.399 321.744 611.562 325.391 617.765H319.141C308.897 617.781 298.69 616.537 288.75 614.062L208.25 593.969C196.013 590.926 183.084 592.482 171.918 598.341C160.752 604.201 152.125 613.955 147.675 625.754C143.225 637.552 143.261 650.574 147.777 662.348C152.292 674.122 160.973 683.828 172.172 689.625L254.687 732.203C266.573 738.339 279.749 741.553 293.125 741.578H525V753.719C525 756.619 526.152 759.401 528.204 761.453C530.255 763.504 533.037 764.656 535.938 764.656H604.172C607.073 764.656 609.855 763.504 611.906 761.453C613.957 759.401 615.109 756.619 615.109 753.719V580.281C615.118 577.386 613.978 574.605 611.939 572.549C609.9 570.493 607.13 569.329 604.234 569.312ZM525 719.656H293.125C283.243 719.648 273.506 717.286 264.719 712.766L182.203 670.156C175.763 666.823 170.771 661.242 168.174 654.471C165.578 647.7 165.557 640.212 168.117 633.428C170.677 626.643 175.638 621.034 182.06 617.666C188.482 614.298 195.916 613.405 202.953 615.156L283.453 635.266C295.11 638.172 307.08 639.641 319.094 639.64H356.594L379.187 650.578C380.651 651.281 382.251 651.654 383.875 651.672C386.353 651.678 388.76 650.843 390.702 649.303C392.643 647.763 394.004 645.609 394.562 643.194C395.119 640.78 394.84 638.247 393.77 636.012C392.7 633.776 390.902 631.971 388.672 630.89L349.969 612.14C346.889 610.632 344.483 608.029 343.22 604.841C341.957 601.652 341.928 598.108 343.138 594.899C344.349 591.691 346.713 589.049 349.767 587.49C352.822 585.931 356.348 585.567 359.656 586.469L472.5 634.797C474.741 635.754 477.238 635.936 479.594 635.312L524.906 623.281L525 719.656ZM593.234 742.734H546.875V591.172H593.234V742.734Z" fill="white"/>
<path d="M167.031 296.094C166.949 325.363 172.635 354.362 183.763 381.433C194.891 408.505 211.244 433.118 231.888 453.868C252.532 474.617 277.061 491.096 304.075 502.363C331.089 513.63 360.059 519.464 389.328 519.531H389.937C419.706 519.632 449.187 513.719 476.614 502.146C504.041 490.574 528.848 473.581 549.547 452.187C575.912 425.16 594.982 391.881 604.969 355.469L606.375 354.875L605.578 353.063C614.178 320.146 615.129 285.698 608.358 252.358C601.588 219.018 587.276 187.669 566.518 160.715C545.761 133.76 519.109 111.914 488.604 96.8511C458.1 81.788 424.552 73.9072 390.531 73.8125C386.781 73.8125 383.094 73.8125 379.594 74.0469C357.452 75.0411 335.583 79.3494 314.719 86.8281C283.197 98.1969 254.622 116.483 231.094 140.344C190.139 181.849 167.132 237.784 167.031 296.094ZM214.922 395.672C190.524 352.436 182.94 301.716 193.625 253.234C206.125 278.078 217.656 305.953 216.219 316.687L215.797 319.812L217.359 322.562C218.141 323.906 236.422 355.125 277.531 367.594C279.094 373.375 276.656 391.766 272.109 408.219L270.937 412.469L273.469 416.078C274.109 417 288.859 437.953 306.625 448.187C308.641 452.031 312.031 462.5 299.953 476.406C264.235 458.516 234.639 430.415 214.922 395.672ZM555.641 182.891C578.815 216.508 591.134 256.419 590.938 297.25C590.917 304.9 590.463 312.542 589.578 320.141C584.219 311.156 581.687 310.266 579.594 309.562C575.875 308.297 557.187 299.547 541.5 291.531C538.937 290.219 537.391 289.437 542.203 277.344C543.354 274.718 544.264 271.993 544.922 269.203C546.484 261.391 541 252.547 534.672 242.359C532.062 238.156 527.703 231.125 527.312 228.797C524.875 213.812 504.125 206.734 482.156 199.266C450.906 188.594 427.469 177.766 412.875 167.062C412.008 166.483 411.246 165.759 410.625 164.922C411.312 162.125 418.656 156.125 422.234 153.219C429.656 147.156 436.062 141.922 436.062 134.266C436.141 130.453 441.641 116.703 447.531 104.141C491.486 117.31 529.626 145.093 555.641 182.891ZM246.656 155.687C267.872 134.17 293.638 117.678 322.062 107.422C340.886 100.672 360.617 96.7904 380.594 95.9062C383.594 95.75 386.703 95.6875 389.844 95.6875H390.469C403.396 95.7273 416.289 97.0145 428.969 99.5312C424.094 110.141 418.203 124.297 417.406 132.5C415.201 134.734 412.852 136.822 410.375 138.75C401.984 145.594 391.625 154.125 391.844 165.594C392.016 171.953 395.375 177.563 401.828 182.266C418.234 194.25 442.547 205.703 476.125 217.078C485.922 220.406 506.266 227.344 508.859 232.109C509.906 238.078 514 244.687 518.75 252.312C521.359 256.531 525.641 263.437 526.359 266.266C526.047 267.328 525.359 269.047 524.797 270.469C521.469 278.844 513.672 298.422 532.984 308.297C545.859 314.875 564.094 323.594 571.547 326.609C573.969 329.984 578.906 339.781 583.75 350.297C577.629 372.497 567.717 393.472 554.453 412.297C548.264 421.073 541.394 429.348 533.906 437.047C515.239 456.344 492.866 471.671 468.129 482.107C443.392 492.544 416.801 497.875 389.953 497.781H389.391C364.877 497.706 340.584 493.135 317.719 484.297C337.297 457.563 320.844 435.688 320.703 435.422L319.422 433.781L317.578 432.828C306.641 427.219 296.063 414.75 291.391 408.75C292.563 403.938 294.375 395.922 295.563 387.641C296.828 378.609 300.25 354.656 284.625 350.141C264.691 344.426 247.25 332.19 235.094 315.391C235.203 291.563 211.797 246.469 201.25 227.359C201.531 226.578 201.813 225.797 202.109 225C211.984 199.053 227.155 175.448 246.656 155.687Z" fill="white"/>
<path d="M329.688 337.766L375 373.437C379.23 376.77 384.459 378.583 389.844 378.583C395.229 378.583 400.458 376.77 404.688 373.437L450 337.719C456.346 332.756 461.474 326.409 464.994 319.163C468.515 311.917 470.334 303.962 470.313 295.906V288.266C470.289 278.947 467.668 269.82 462.744 261.909C457.821 253.998 450.79 247.615 442.44 243.479C434.09 239.342 424.753 237.615 415.476 238.491C406.199 239.367 397.35 242.811 389.922 248.437C382.491 242.786 373.63 239.322 364.337 238.436C355.043 237.55 345.687 239.276 337.322 243.421C328.957 247.566 321.916 253.965 316.992 261.897C312.068 269.828 309.457 278.977 309.453 288.312V295.953C309.42 304.003 311.226 311.954 314.733 319.2C318.24 326.446 323.354 332.796 329.688 337.766ZM331.25 288.312C331.248 282.482 333.05 276.794 336.41 272.029C339.77 267.265 344.523 263.657 350.015 261.702C355.508 259.746 361.471 259.539 367.086 261.109C372.701 262.679 377.693 265.948 381.375 270.469C382.401 271.724 383.693 272.735 385.157 273.43C386.622 274.124 388.223 274.485 389.844 274.485C391.465 274.485 393.065 274.124 394.53 273.43C395.995 272.735 397.287 271.724 398.313 270.469C401.995 265.948 406.986 262.679 412.601 261.109C418.216 259.539 424.179 259.746 429.672 261.702C435.165 263.657 439.917 267.265 443.277 272.029C446.637 276.794 448.44 282.482 448.438 288.312V295.953C448.447 300.698 447.375 305.383 445.304 309.653C443.233 313.922 440.217 317.664 436.484 320.594L391.25 356.25C390.871 356.546 390.403 356.708 389.922 356.708C389.441 356.708 388.973 356.546 388.594 356.25L343.281 320.531C339.549 317.601 336.533 313.859 334.462 309.59C332.391 305.321 331.319 300.636 331.328 295.891L331.25 288.312Z" fill="white"/>
</svg>
