<svg width="237" height="240" viewBox="0 0 237 240" fill="none" xmlns="http://www.w3.org/2000/svg">
<ellipse cx="118.5" cy="119.531" rx="118.5" ry="119.531" fill="white"/>
<path d="M118.5 120.528L155.062 83.9658" stroke="#DDDDDD" stroke-width="12" stroke-miterlimit="10" stroke-linecap="round" stroke-linejoin="round"/>
<path d="M203.812 59.5908H179.437V35.2158L155.062 59.5908V83.9658H179.437L203.812 59.5908Z" stroke="#DDDDDD" stroke-width="12" stroke-miterlimit="10" stroke-linecap="round" stroke-linejoin="round"/>
<path d="M118.5 157.091C138.693 157.091 155.062 140.721 155.062 120.528C155.062 100.335 138.693 83.9658 118.5 83.9658C98.3071 83.9658 81.9375 100.335 81.9375 120.528C81.9375 140.721 98.3071 157.091 118.5 157.091Z" stroke="#DDDDDD" stroke-width="12" stroke-miterlimit="10" stroke-linecap="round" stroke-linejoin="round"/>
<path d="M185.531 77.8721C193.453 90.0596 197.719 104.685 197.719 120.528C197.719 164.403 162.375 199.747 118.5 199.747C74.625 199.747 39.2812 164.403 39.2812 120.528C39.2812 76.6533 74.625 41.3096 118.5 41.3096C134.344 41.3096 148.969 45.5752 161.156 53.4971" stroke="#DDDDDD" stroke-width="12" stroke-miterlimit="10" stroke-linecap="round" stroke-linejoin="round"/>
</svg>
