<svg width="237" height="237" viewBox="0 0 237 237" fill="none" xmlns="http://www.w3.org/2000/svg">
<circle cx="118.5" cy="118.5" r="118.5" fill="white"/>
<path fill-rule="evenodd" clip-rule="evenodd" d="M118.617 88.9058C102.921 88.9058 90.196 101.741 90.196 117.574C90.196 133.407 102.921 146.242 118.617 146.242C134.314 146.242 147.038 133.407 147.038 117.574C147.038 101.741 134.314 88.9058 118.617 88.9058ZM102.828 117.574C102.828 108.778 109.897 101.647 118.617 101.647C127.337 101.647 134.407 108.778 134.407 117.574C134.407 126.37 127.337 133.501 118.617 133.501C109.897 133.501 102.828 126.37 102.828 117.574Z" fill="#DDDDDD"/>
<path fill-rule="evenodd" clip-rule="evenodd" d="M118.257 57C91.7898 57 72.8241 71.9283 60.8022 86.1047C54.7627 93.2264 50.3272 100.32 47.4005 105.625C45.9332 108.284 44.8349 110.513 44.0953 112.097C43.7253 112.888 43.4444 113.521 43.2513 113.966C43.1548 114.189 43.0802 114.366 43.0273 114.493L42.9643 114.644L42.945 114.691L42.9384 114.708L42.9358 114.714L42 117.033L42.8766 119.376L42.879 119.382L42.8853 119.399L42.9037 119.448L42.9636 119.603C43.0137 119.732 43.0845 119.912 43.1763 120.138C43.3597 120.593 43.6269 121.236 43.9802 122.042C44.6864 123.652 45.7389 125.919 47.1559 128.622C49.982 134.015 54.2985 141.227 60.2647 148.469C72.1614 162.909 91.1433 178.044 118.257 178.044C145.371 178.044 164.353 162.909 176.25 148.469C182.216 141.227 186.533 134.015 189.359 128.622C190.775 125.919 191.828 123.652 192.534 122.042C192.887 121.236 193.155 120.593 193.338 120.138C193.43 119.912 193.501 119.732 193.551 119.603L193.611 119.448L193.629 119.399L193.635 119.382L193.638 119.376L194.514 117.033L193.578 114.714L193.57 114.691L193.55 114.644L193.487 114.493C193.434 114.366 193.36 114.189 193.263 113.966C193.07 113.521 192.789 112.888 192.419 112.097C191.679 110.513 190.581 108.284 189.114 105.625C186.187 100.32 181.751 93.2264 175.712 86.1047C163.69 71.9283 144.725 57 118.257 57ZM187.731 117.121C193.64 119.371 193.638 119.376 193.638 119.376L187.731 117.121ZM193.578 114.714C193.578 114.714 193.58 114.719 187.731 117.121L193.578 114.714ZM48.7835 117.121C42.9338 114.719 42.9358 114.714 42.9358 114.714L48.7835 117.121ZM42.8766 119.376C42.8766 119.376 42.8746 119.371 48.7835 117.121L42.8766 119.376ZM58.3231 122.668C57.1542 120.437 56.2745 118.562 55.6729 117.206C56.3052 115.868 57.2251 114.019 58.438 111.82C61.0715 107.047 65.0449 100.703 70.401 94.3871C81.1699 81.6883 96.9411 69.7415 118.257 69.7415C139.573 69.7415 155.345 81.6883 166.114 94.3871C171.469 100.703 175.443 107.047 178.076 111.82C179.29 114.019 180.209 115.868 180.841 117.206C180.24 118.562 179.36 120.437 178.191 122.668C175.657 127.503 171.804 133.929 166.535 140.325C155.96 153.161 140.205 165.302 118.257 165.302C96.3094 165.302 80.5544 153.161 69.9797 140.325C64.7102 133.929 60.8574 127.503 58.3231 122.668Z" fill="#DDDDDD"/>
</svg>
